<mxfile host="app.diagrams.net" modified="2021-07-31T10:28:56.363Z" agent="5.0 (Windows NT 6.1; Win64; x64) AppleWebKit/537.36 (KHTML, like Gecko) Chrome/92.0.4515.107 Safari/537.36" etag="0COCzyG6SQKYqZZo8L_v" version="14.9.3" type="github">
  <diagram id="C5RBs43oDa-KdzZeNtuy" name="Page-1">
    <mxGraphModel dx="693" dy="746" grid="1" gridSize="10" guides="1" tooltips="1" connect="1" arrows="1" fold="1" page="1" pageScale="1" pageWidth="827" pageHeight="1169" math="0" shadow="0">
      <root>
        <mxCell id="WIyWlLk6GJQsqaUBKTNV-0" />
        <mxCell id="WIyWlLk6GJQsqaUBKTNV-1" parent="WIyWlLk6GJQsqaUBKTNV-0" />
        <mxCell id="HqP1AH-cH8uqQTu6hfhK-6" value="" style="edgeStyle=orthogonalEdgeStyle;rounded=0;orthogonalLoop=1;jettySize=auto;html=1;fontSize=14;" edge="1" parent="WIyWlLk6GJQsqaUBKTNV-1" source="HqP1AH-cH8uqQTu6hfhK-1" target="HqP1AH-cH8uqQTu6hfhK-2">
          <mxGeometry relative="1" as="geometry" />
        </mxCell>
        <mxCell id="HqP1AH-cH8uqQTu6hfhK-1" value="Ввод x" style="shape=parallelogram;html=1;strokeWidth=2;perimeter=parallelogramPerimeter;whiteSpace=wrap;rounded=1;arcSize=12;size=0.23;fontSize=18;" vertex="1" parent="WIyWlLk6GJQsqaUBKTNV-1">
          <mxGeometry x="245" y="110" width="150" height="60" as="geometry" />
        </mxCell>
        <mxCell id="HqP1AH-cH8uqQTu6hfhK-7" value="" style="edgeStyle=orthogonalEdgeStyle;rounded=0;orthogonalLoop=1;jettySize=auto;html=1;fontSize=14;" edge="1" parent="WIyWlLk6GJQsqaUBKTNV-1" source="HqP1AH-cH8uqQTu6hfhK-2" target="HqP1AH-cH8uqQTu6hfhK-3">
          <mxGeometry relative="1" as="geometry" />
        </mxCell>
        <mxCell id="HqP1AH-cH8uqQTu6hfhK-2" value="d = 2" style="rounded=1;whiteSpace=wrap;html=1;absoluteArcSize=1;arcSize=14;strokeWidth=2;fontSize=18;" vertex="1" parent="WIyWlLk6GJQsqaUBKTNV-1">
          <mxGeometry x="247.5" y="210" width="145" height="50" as="geometry" />
        </mxCell>
        <mxCell id="HqP1AH-cH8uqQTu6hfhK-9" style="edgeStyle=orthogonalEdgeStyle;rounded=0;orthogonalLoop=1;jettySize=auto;html=1;exitX=1;exitY=0.5;exitDx=0;exitDy=0;fontSize=14;" edge="1" parent="WIyWlLk6GJQsqaUBKTNV-1" source="HqP1AH-cH8uqQTu6hfhK-3" target="HqP1AH-cH8uqQTu6hfhK-8">
          <mxGeometry relative="1" as="geometry" />
        </mxCell>
        <mxCell id="HqP1AH-cH8uqQTu6hfhK-13" style="edgeStyle=orthogonalEdgeStyle;rounded=0;orthogonalLoop=1;jettySize=auto;html=1;exitX=0;exitY=0.5;exitDx=0;exitDy=0;entryX=0.5;entryY=0;entryDx=0;entryDy=0;fontSize=18;" edge="1" parent="WIyWlLk6GJQsqaUBKTNV-1" source="HqP1AH-cH8uqQTu6hfhK-3" target="HqP1AH-cH8uqQTu6hfhK-12">
          <mxGeometry relative="1" as="geometry" />
        </mxCell>
        <mxCell id="HqP1AH-cH8uqQTu6hfhK-3" value="(d * d &amp;lt;= x) &amp;amp;&amp;amp;&lt;br style=&quot;font-size: 14px;&quot;&gt;(x % d != 0)" style="rhombus;whiteSpace=wrap;html=1;shadow=0;fontFamily=Helvetica;fontSize=14;align=center;strokeWidth=2;spacing=6;spacingTop=-4;" vertex="1" parent="WIyWlLk6GJQsqaUBKTNV-1">
          <mxGeometry x="255" y="310" width="130" height="100" as="geometry" />
        </mxCell>
        <mxCell id="HqP1AH-cH8uqQTu6hfhK-5" value="" style="edgeStyle=orthogonalEdgeStyle;rounded=0;orthogonalLoop=1;jettySize=auto;html=1;fontSize=14;" edge="1" parent="WIyWlLk6GJQsqaUBKTNV-1" source="HqP1AH-cH8uqQTu6hfhK-4" target="HqP1AH-cH8uqQTu6hfhK-1">
          <mxGeometry relative="1" as="geometry" />
        </mxCell>
        <mxCell id="HqP1AH-cH8uqQTu6hfhK-4" value="Начало" style="strokeWidth=2;html=1;shape=mxgraph.flowchart.terminator;whiteSpace=wrap;fontSize=18;" vertex="1" parent="WIyWlLk6GJQsqaUBKTNV-1">
          <mxGeometry x="248.75" y="40" width="142.5" height="40" as="geometry" />
        </mxCell>
        <mxCell id="HqP1AH-cH8uqQTu6hfhK-10" style="edgeStyle=orthogonalEdgeStyle;rounded=0;orthogonalLoop=1;jettySize=auto;html=1;exitX=0.5;exitY=1;exitDx=0;exitDy=0;fontSize=14;" edge="1" parent="WIyWlLk6GJQsqaUBKTNV-1" source="HqP1AH-cH8uqQTu6hfhK-8">
          <mxGeometry relative="1" as="geometry">
            <mxPoint x="320" y="290" as="targetPoint" />
            <Array as="points">
              <mxPoint x="433" y="510" />
              <mxPoint x="540" y="510" />
              <mxPoint x="540" y="290" />
            </Array>
          </mxGeometry>
        </mxCell>
        <mxCell id="HqP1AH-cH8uqQTu6hfhK-8" value="d = d + 1" style="rounded=1;whiteSpace=wrap;html=1;absoluteArcSize=1;arcSize=14;strokeWidth=2;fontSize=18;" vertex="1" parent="WIyWlLk6GJQsqaUBKTNV-1">
          <mxGeometry x="360" y="430" width="145" height="50" as="geometry" />
        </mxCell>
        <mxCell id="HqP1AH-cH8uqQTu6hfhK-11" value="yes" style="text;html=1;align=center;verticalAlign=middle;resizable=0;points=[];autosize=1;strokeColor=none;fontSize=18;" vertex="1" parent="WIyWlLk6GJQsqaUBKTNV-1">
          <mxGeometry x="385" y="325" width="40" height="30" as="geometry" />
        </mxCell>
        <mxCell id="HqP1AH-cH8uqQTu6hfhK-18" style="edgeStyle=orthogonalEdgeStyle;rounded=0;orthogonalLoop=1;jettySize=auto;html=1;exitX=0;exitY=0.5;exitDx=0;exitDy=0;entryX=0.5;entryY=0;entryDx=0;entryDy=0;fontSize=18;" edge="1" parent="WIyWlLk6GJQsqaUBKTNV-1" source="HqP1AH-cH8uqQTu6hfhK-12" target="HqP1AH-cH8uqQTu6hfhK-16">
          <mxGeometry relative="1" as="geometry" />
        </mxCell>
        <mxCell id="HqP1AH-cH8uqQTu6hfhK-19" style="edgeStyle=orthogonalEdgeStyle;rounded=0;orthogonalLoop=1;jettySize=auto;html=1;exitX=1;exitY=0.5;exitDx=0;exitDy=0;entryX=0.5;entryY=0;entryDx=0;entryDy=0;fontSize=18;" edge="1" parent="WIyWlLk6GJQsqaUBKTNV-1" source="HqP1AH-cH8uqQTu6hfhK-12" target="HqP1AH-cH8uqQTu6hfhK-15">
          <mxGeometry relative="1" as="geometry" />
        </mxCell>
        <mxCell id="HqP1AH-cH8uqQTu6hfhK-12" value="(x &amp;gt; 1) &amp;amp;&amp;amp;&lt;br&gt;(d * d &amp;gt; x)" style="rhombus;whiteSpace=wrap;html=1;shadow=0;fontFamily=Helvetica;fontSize=14;align=center;strokeWidth=2;spacing=6;spacingTop=-4;" vertex="1" parent="WIyWlLk6GJQsqaUBKTNV-1">
          <mxGeometry x="150" y="405" width="130" height="100" as="geometry" />
        </mxCell>
        <mxCell id="HqP1AH-cH8uqQTu6hfhK-14" value="no" style="text;html=1;align=center;verticalAlign=middle;resizable=0;points=[];autosize=1;strokeColor=none;fontSize=18;" vertex="1" parent="WIyWlLk6GJQsqaUBKTNV-1">
          <mxGeometry x="215" y="325" width="40" height="30" as="geometry" />
        </mxCell>
        <mxCell id="HqP1AH-cH8uqQTu6hfhK-21" value="" style="edgeStyle=orthogonalEdgeStyle;rounded=0;orthogonalLoop=1;jettySize=auto;html=1;fontSize=18;" edge="1" parent="WIyWlLk6GJQsqaUBKTNV-1" source="HqP1AH-cH8uqQTu6hfhK-15" target="HqP1AH-cH8uqQTu6hfhK-17">
          <mxGeometry relative="1" as="geometry" />
        </mxCell>
        <mxCell id="HqP1AH-cH8uqQTu6hfhK-15" value="Число простое" style="shape=document;whiteSpace=wrap;html=1;boundedLbl=1;fontSize=18;strokeWidth=2;" vertex="1" parent="WIyWlLk6GJQsqaUBKTNV-1">
          <mxGeometry x="248.75" y="530" width="120" height="80" as="geometry" />
        </mxCell>
        <mxCell id="HqP1AH-cH8uqQTu6hfhK-20" value="" style="edgeStyle=orthogonalEdgeStyle;rounded=0;orthogonalLoop=1;jettySize=auto;html=1;fontSize=18;" edge="1" parent="WIyWlLk6GJQsqaUBKTNV-1" source="HqP1AH-cH8uqQTu6hfhK-16" target="HqP1AH-cH8uqQTu6hfhK-17">
          <mxGeometry relative="1" as="geometry" />
        </mxCell>
        <mxCell id="HqP1AH-cH8uqQTu6hfhK-16" value="Число составное" style="shape=document;whiteSpace=wrap;html=1;boundedLbl=1;fontSize=18;strokeWidth=2;" vertex="1" parent="WIyWlLk6GJQsqaUBKTNV-1">
          <mxGeometry x="60" y="530" width="120" height="80" as="geometry" />
        </mxCell>
        <mxCell id="HqP1AH-cH8uqQTu6hfhK-17" value="Конец" style="strokeWidth=2;html=1;shape=mxgraph.flowchart.terminator;whiteSpace=wrap;fontSize=18;" vertex="1" parent="WIyWlLk6GJQsqaUBKTNV-1">
          <mxGeometry x="143.75" y="660" width="142.5" height="40" as="geometry" />
        </mxCell>
        <mxCell id="HqP1AH-cH8uqQTu6hfhK-22" value="yes" style="text;html=1;align=center;verticalAlign=middle;resizable=0;points=[];autosize=1;strokeColor=none;fontSize=18;" vertex="1" parent="WIyWlLk6GJQsqaUBKTNV-1">
          <mxGeometry x="275" y="420" width="40" height="30" as="geometry" />
        </mxCell>
        <mxCell id="HqP1AH-cH8uqQTu6hfhK-23" value="no" style="text;html=1;align=center;verticalAlign=middle;resizable=0;points=[];autosize=1;strokeColor=none;fontSize=18;" vertex="1" parent="WIyWlLk6GJQsqaUBKTNV-1">
          <mxGeometry x="120" y="420" width="40" height="30" as="geometry" />
        </mxCell>
      </root>
    </mxGraphModel>
  </diagram>
</mxfile>
